<svg width="32" height="32" viewBox="0 0 32 32" fill="none" xmlns="http://www.w3.org/2000/svg">
<path d="M16.0001 2.66675C8.65341 2.66675 2.66675 8.65341 2.66675 16.0001C2.66675 23.3467 8.65341 29.3334 16.0001 29.3334C23.3467 29.3334 29.3334 23.3467 29.3334 16.0001C29.3334 8.65341 23.3467 2.66675 16.0001 2.66675ZM18.3867 20.0001C18.7734 20.3867 18.7734 21.0267 18.3867 21.4134C18.1867 21.6134 17.9334 21.7067 17.6801 21.7067C17.4267 21.7067 17.1734 21.6134 16.9734 21.4134L12.2667 16.7067C11.8801 16.3201 11.8801 15.6801 12.2667 15.2934L16.9734 10.5867C17.3601 10.2001 18.0001 10.2001 18.3867 10.5867C18.7734 10.9734 18.7734 11.6134 18.3867 12.0001L14.3867 16.0001L18.3867 20.0001Z" fill="#292D32"/>
</svg>
