<svg width="32" height="32" viewBox="0 0 32 32" fill="none" xmlns="http://www.w3.org/2000/svg">
<path d="M16.0001 2.66675C8.65341 2.66675 2.66675 8.65341 2.66675 16.0001C2.66675 23.3467 8.65341 29.3334 16.0001 29.3334C23.3467 29.3334 29.3334 23.3467 29.3334 16.0001C29.3334 8.65341 23.3467 2.66675 16.0001 2.66675ZM19.7201 16.7067L15.0134 21.4134C14.8134 21.6134 14.5601 21.7067 14.3067 21.7067C14.0534 21.7067 13.8001 21.6134 13.6001 21.4134C13.2134 21.0267 13.2134 20.3867 13.6001 20.0001L17.6001 16.0001L13.6001 12.0001C13.2134 11.6134 13.2134 10.9734 13.6001 10.5867C13.9867 10.2001 14.6267 10.2001 15.0134 10.5867L19.7201 15.2934C20.1201 15.6801 20.1201 16.3201 19.7201 16.7067Z" fill="#292D32"/>
</svg>
