<svg width="20" height="20" viewBox="0 0 20 20" fill="none" xmlns="http://www.w3.org/2000/svg">
<path d="M13.6666 4.99984V5.49984H14.1666H16.6666C17.3155 5.49984 17.8333 6.01765 17.8333 6.6665V15.8332C17.8333 16.482 17.3155 16.9998 16.6666 16.9998H3.33329C2.68444 16.9998 2.16663 16.482 2.16663 15.8332V6.6665C2.16663 6.01765 2.68444 5.49984 3.33329 5.49984H5.83329H6.33329V4.99984V3.33317C6.33329 2.68431 6.8511 2.1665 7.49996 2.1665H12.5C13.1488 2.1665 13.6666 2.68431 13.6666 3.33317V4.99984ZM7.49996 2.83317H6.99996V3.33317V4.99984V5.49984H7.49996H12.5H13V4.99984V3.33317V2.83317H12.5H7.49996ZM16.6666 16.3332H17.1666V15.8332V14.1665V13.6665H16.6666H3.33329H2.83329V14.1665V15.8332V16.3332H3.33329H16.6666ZM16.6666 12.1665H17.1666V11.6665V7.49984C17.1666 6.76536 16.5678 6.1665 15.8333 6.1665H14.1666H13.6666V6.6665V7.49984C13.6666 7.68203 13.5155 7.83317 13.3333 7.83317C13.1511 7.83317 13 7.68203 13 7.49984V6.6665V6.1665H12.5H7.49996H6.99996V6.6665V7.49984C6.99996 7.68203 6.84882 7.83317 6.66663 7.83317C6.48444 7.83317 6.33329 7.68203 6.33329 7.49984V6.6665V6.1665H5.83329H4.16663C3.43215 6.1665 2.83329 6.76536 2.83329 7.49984V11.6665V12.1665H3.33329H16.6666Z" fill="#2B8C34" stroke="#2B8C34"/>
</svg>
