<svg width="20" height="20" viewBox="0 0 20 20" fill="none" xmlns="http://www.w3.org/2000/svg">
<path d="M14.4282 5.11235L14.4285 5.11198C14.5583 4.98225 14.7667 4.98225 14.8964 5.11198C15.0178 5.23339 15.0178 5.45014 14.8964 5.57154L10.8214 9.64654L10.4679 10.0001L10.8214 10.3537L14.8964 14.4287C15.0262 14.5584 15.0262 14.7668 14.8964 14.8965C14.7667 15.0263 14.5583 15.0263 14.4285 14.8965L10.3535 10.8215L9.99998 10.468L9.64642 10.8215L5.57142 14.8965C5.44168 15.0263 5.23327 15.0263 5.10353 14.8965C4.97379 14.7668 4.97379 14.5584 5.10353 14.4287L9.17853 10.3537L9.53208 10.0001L9.17853 9.64654L5.10353 5.57154C4.97379 5.44181 4.97379 5.23339 5.10353 5.10365C5.23327 4.97391 5.44168 4.97391 5.57142 5.10365L9.64642 9.17865L9.99961 9.53184L10.3532 9.17901L14.4282 5.11235Z" fill="#2B8C34" stroke="#2B8C34"/>
</svg>
