<svg width="20" height="20" viewBox="0 0 20 20" fill="none" xmlns="http://www.w3.org/2000/svg">
<path d="M12.5631 3.68689L12.7095 3.83333H12.9166H15C15.1821 3.83333 15.3333 3.98448 15.3333 4.16667C15.3333 4.34886 15.1821 4.5 15 4.5H4.99996C4.81777 4.5 4.66663 4.34886 4.66663 4.16667C4.66663 3.98448 4.81777 3.83333 4.99996 3.83333H7.08329H7.2904L7.43685 3.68689L8.02851 3.09522C8.08581 3.03792 8.17574 3 8.25829 3H11.7416C11.8242 3 11.9141 3.03792 11.9714 3.09522L12.5631 3.68689ZM7.28807 12.4964L7.64163 12.85L7.28807 12.4964C6.76781 13.0167 6.76781 13.8583 7.28807 14.3786C7.80833 14.8988 8.64992 14.8988 9.17018 14.3786L9.99996 13.5488L10.8297 14.3786C11.35 14.8988 12.1916 14.8988 12.7118 14.3786C13.2321 13.8583 13.2321 13.0167 12.7118 12.4964L11.8821 11.6667L12.7118 10.8369C13.2321 10.3166 13.2321 9.47504 12.7118 8.95478C12.1916 8.43452 11.35 8.43452 10.8297 8.95478L9.99996 9.78456L9.17018 8.95478C8.64992 8.43452 7.80833 8.43452 7.28807 8.95478C6.77123 9.47162 6.76372 10.3232 7.29011 10.8389L8.11785 11.6667L7.28807 12.4964ZM6.66663 17C6.0261 17 5.49996 16.4739 5.49996 15.8333V7.5C5.49996 6.85948 6.0261 6.33333 6.66663 6.33333H13.3333C13.9738 6.33333 14.5 6.85948 14.5 7.5V15.8333C14.5 16.4739 13.9738 17 13.3333 17H6.66663Z" fill="#B92043" stroke="#B92043"/>
</svg>
