<svg Name="w-5 h-5" viewBox="0 0 21 20" fill="none" xmlns="http://www.w3.org/2000/svg">
<path d="M12.9951 12.2584V12.1667H13.0867H13.5373L16.924 15.5694L16.9248 15.5703C17.0713 15.7167 17.0713 15.9584 16.9248 16.1048C16.7784 16.2512 16.5367 16.2512 16.3903 16.1048L12.9951 12.7096V12.2584ZM12.4738 11.1163L12.2296 11.4012L11.9447 11.6454C10.8846 12.554 9.44102 13.0227 7.90329 12.7653C5.80439 12.4104 4.12299 10.6527 3.86642 8.53976L3.86633 8.53903C3.47268 5.33681 6.16518 2.64431 9.3674 3.03796L9.36813 3.03805C11.4811 3.29462 13.2388 4.97602 13.5937 7.07492C13.8511 8.61265 13.3824 10.0563 12.4738 11.1163ZM4.49507 7.9167C4.49507 10.2678 6.39393 12.1667 8.74507 12.1667C11.0962 12.1667 12.9951 10.2678 12.9951 7.9167C12.9951 5.56556 11.0962 3.6667 8.74507 3.6667C6.39393 3.6667 4.49507 5.56556 4.49507 7.9167Z" fill="#323232" stroke="#96A397"/>
</svg>