<svg width="20" height="20" viewBox="0 0 20 20" fill="none" xmlns="http://www.w3.org/2000/svg">
<g clipPath="url(#clip0_30_357)">
<path d="M15 4.99984H13.3334C13.3334 3.15817 11.8417 1.6665 10 1.6665C8.15837 1.6665 6.66671 3.15817 6.66671 4.99984H5.00004C4.08337 4.99984 3.33337 5.74984 3.33337 6.6665V16.6665C3.33337 17.5832 4.08337 18.3332 5.00004 18.3332H15C15.9167 18.3332 16.6667 17.5832 16.6667 16.6665V6.6665C16.6667 5.74984 15.9167 4.99984 15 4.99984ZM8.33337 8.33317C8.33337 8.7915 7.95837 9.1665 7.50004 9.1665C7.04171 9.1665 6.66671 8.7915 6.66671 8.33317V6.6665H8.33337V8.33317ZM10 3.33317C10.9167 3.33317 11.6667 4.08317 11.6667 4.99984H8.33337C8.33337 4.08317 9.08337 3.33317 10 3.33317ZM13.3334 8.33317C13.3334 8.7915 12.9584 9.1665 12.5 9.1665C12.0417 9.1665 11.6667 8.7915 11.6667 8.33317V6.6665H13.3334V8.33317Z" fill="#2B8C34"/>
</g>
<defs>
<clipPath id="clip0_30_357">
<rect width="20" height="20" fill="white"/>
</clipPath>
</defs>
</svg>
