<svg width="20" height="20" viewBox="0 0 20 20" fill="none" xmlns="http://www.w3.org/2000/svg">
<path d="M15.8736 11.8202L15.8737 11.8202L15.8727 11.8104C15.8632 11.7118 15.9011 11.6145 15.9702 11.5454L15.9704 11.5455L15.9797 11.5357C16.0271 11.4857 16.1 11.4502 16.2 11.4502H17.375V12.1169H16.25C16.0299 12.1169 15.8839 11.9552 15.8736 11.8202Z" fill="#2B8C34" stroke="#2B8C34"/>
<path d="M14.0581 12.3523L14.058 12.3523L14.0601 12.3597C14.3464 13.3838 15.3288 13.9917 16.3166 13.9917H17.0416C17.2238 13.9917 17.375 14.1428 17.375 14.325V14.4834C17.375 15.9322 16.1905 17.1167 14.7416 17.1167H5.17496C3.7261 17.1167 2.54163 15.9322 2.54163 14.4834V8.87503C2.54163 8.01355 2.95416 7.25138 3.59092 6.77556L3.59093 6.77558L3.59465 6.77275C4.03486 6.43735 4.57896 6.2417 5.17496 6.2417H14.7416C16.1905 6.2417 17.375 7.42617 17.375 8.87503V9.2417C17.375 9.42389 17.2238 9.57503 17.0416 9.57503H16.1916C15.593 9.57503 15.0403 9.81061 14.6375 10.222C14.1016 10.75 13.8441 11.5391 14.0581 12.3523Z" fill="#2B8C34" stroke="#2B8C34"/>
<path d="M13.5 4.0165C13.725 4.2415 13.5333 4.5915 13.2167 4.5915L6.81668 4.58317C6.45001 4.58317 6.25834 4.13317 6.52501 3.87484L7.87501 2.5165C9.01667 1.38317 10.8667 1.38317 12.0083 2.5165L13.4667 3.9915C13.475 3.99984 13.4917 4.00817 13.5 4.0165Z" fill="#2B8C34"/>
</svg>
